# xmcd
#
# Track frame offsets:
#	150
#	26250
#	45567
#	60755
#	76047
#	92097
#	108327
#	127015
#	138112
#	157402
#	176775
#	195257
#	212040
#	228377
#	242940
#	258315
#
# Disc length: 3677 seconds
#
# Revision: 1
# Processed by: cddbd v1.5.2PL0 Copyright (c) Steve Scherf et al.
# Submitted via: EasyCDDAExtractor 15.2.5.1
#
DISCID=cd0e5b10
DTITLE=Engelbert - Engelbert CD 2
DYEAR=1900
DGENRE=
TTITLE0=Medley: a. Ill Walk Alone b.  Dont't Want To Walk Without You c. In Th
TTITLE0=e Still Of The Night d. They Say It's Wonderful
TTITLE1=Long Ago And Far Away
TTITLE2=Stardust
TTITLE3=They Say It's Wonderful
TTITLE4=Harbour Lights
TTITLE5=I'll Be Around
TTITLE6=But Beautiful
TTITLE7=Moonlight Becomes You
TTITLE8=Getting Sentimental Over You
TTITLE9=In The Still Of The Night
TTITLE10=The More I See You
TTITLE11=Yours
TTITLE12=I'll Be Seeing You
TTITLE13=Quando, Quando, Quando
TTITLE14=I Believe In Miracles
TTITLE15=I Get Loneley
EXTD=
EXTT0=
EXTT1=
EXTT2=
EXTT3=
EXTT4=
EXTT5=
EXTT6=
EXTT7=
EXTT8=
EXTT9=
EXTT10=
EXTT11=
EXTT12=
EXTT13=
EXTT14=
EXTT15=
PLAYORDER=
